<?xml version="1.0" encoding="utf-8"?>
<!-- Generator: Adobe Illustrator 22.1.0, SVG Export Plug-In . SVG Version: 6.00 Build 0)  -->
<svg version="1.1" id="Layer_1" xmlns="http://www.w3.org/2000/svg" xmlns:xlink="http://www.w3.org/1999/xlink" x="0px" y="0px"
	 viewBox="0 0 104.7 104.7" style="enable-background:new 0 0 104.7 104.7;" xml:space="preserve">
<style type="text/css">
	.st0{fill:#00556F;}
	.st1{fill:#FFFFFF;}
</style>
<g>
	<path class="st0" d="M105,94.6c0,5.5-4.5,10-10,10H9.7c-5.5,0-10-4.5-10-10V10.1c0-5.5,4.5-10,10-10H95c5.5,0,10,4.5,10,10V94.6z"
		/>
</g>
<path class="st1" d="M80.4,67.5l-2.6,8.3c-1.4,4.4-5.5,7.5-10.1,7.5H47.8c-3,0-5.3-2.4-5.3-5.3V55.6h14.4c3.8,0,6.8,3.1,6.8,6.8v1.8
	c0,0.5,0.4,0.9,0.9,0.9h3c0.5,0,0.9-0.4,0.9-0.9V38.3c0-0.5-0.4-0.9-0.9-0.9h-3c-0.5,0-0.9,0.4-0.9,0.9v2.8c0,3.8-3.1,6.8-6.8,6.8
	H42.4V25.5c0-3,2.4-5.3,5.3-5.3h18.8c4.9,0,8.8,3.9,8.8,8.8v5.3c0,0.5,0.4,0.9,0.9,0.9h3.4c0.5,0,0.9-0.4,0.9-0.9l1.4-18.3
	c0.1-1.3-0.9-2.4-2.2-2.4H20.2c-0.8,0-1.5,0.7-1.5,1.5v3.4c0,0.8,0.7,1.5,1.5,1.5H24c3,0,5.3,2.4,5.3,5.3V78c0,3-2.4,5.3-5.3,5.3
	h-3.8c-0.8,0-1.5,0.7-1.5,1.5v3.4c0,0.8,0.7,1.5,1.5,1.5h60.4c1.1,0,2-0.8,2.2-1.9l3-19.9c0.1-0.6-0.4-1.1-0.9-1.1h-3.5
	C80.8,66.8,80.5,67.1,80.4,67.5z"/>
</svg>
